<svg xmlns="http://www.w3.org/2000/svg" viewBox="0 0 73.26 43.03">
 <defs>
  <style>.cls-1{fill:#1c1f35;}.cls-2{fill:#ffd550;}</style>
 </defs>
 <path class="cls-1" d="M52.83,43H17.2a1,1,0,0,1,0-2H52.83a1,1,0,0,1,0,2Z"/>
 <path class="cls-1" d="M34.11,28.17a1,1,0,0,1-.51-1.86L49,17a1,1,0,1,1,1,1.71L34.63,28A1.07,1.07,0,0,1,34.11,28.17Z"/>
 <path class="cls-1" d="M15.61,31.57a1,1,0,0,1-.7-.29l-6-6a1,1,0,0,1,0-1.42,1,1,0,0,1,1.41,0l6,6a1,1,0,0,1,0,1.41A1,1,0,0,1,15.61,31.57Z"/>
 <path class="cls-1" d="M7,29.42a1,1,0,0,1-.71-.3l-6-6a1,1,0,1,1,1.42-1.42l6,6a1,1,0,0,1,0,1.41A1,1,0,0,1,7,29.42Z"/>
 <path class="cls-1" d="M30.5,34.39a8.22,8.22,0,0,1-1-.06,8.92,8.92,0,0,1-5.14-2.43l-9.39-9a3.06,3.06,0,0,1-.9-2.73,3,3,0,0,1,.59-1.36,3.1,3.1,0,0,1,1.17-.92L20,16.05a.93.93,0,0,1,.8,0l6.51,2.85,5.37-3.14L26.06,9.63a3,3,0,0,1-.82-1.26,3.06,3.06,0,0,1,.46-2.86,3.15,3.15,0,0,1,1.18-.93L31,2.77a1,1,0,0,1,.73,0l14.51,5L56.89,1.27A8.87,8.87,0,0,1,63,.14a9,9,0,0,1,5.38,3.23L73,9.19a1,1,0,0,1-.27,1.48L35.05,33.14A8.93,8.93,0,0,1,30.5,34.39ZM20.43,18.05l-3.79,1.67a.93.93,0,0,0-.38.3,1.05,1.05,0,0,0-.21.47,1.18,1.18,0,0,0,0,.53,1.08,1.08,0,0,0,.27.43h0l9.4,9a7,7,0,0,0,4,1.89A6.83,6.83,0,0,0,34,31.42L70.76,9.54,66.84,4.62a6.92,6.92,0,0,0-4.17-2.51A6.74,6.74,0,0,0,57.93,3L46.86,9.65a1,1,0,0,1-.84.09l-14.58-5L27.69,6.41a1.11,1.11,0,0,0-.4.31,1.2,1.2,0,0,0-.2.48,1.06,1.06,0,0,0,0,.53,1.23,1.23,0,0,0,.28.43l7.65,7.05a1,1,0,0,1,.32.84,1,1,0,0,1-.49.75l-7,4.09a1,1,0,0,1-.91.05Z"/>
 <path class="cls-2" d="M68.48,5.32c-6,4.7-11.9,5.29-16.19,0l3.37-2.19A9.58,9.58,0,0,1,68.48,5.32Z"/>
 <path class="cls-1" d="M59.5,10.06a10.08,10.08,0,0,1-8-4.11l-.7-.87,4.3-2.79A10.63,10.63,0,0,1,69.27,4.71l.61.78-.78.61C65.74,8.74,62.48,10.06,59.5,10.06ZM53.8,5.52C58.06,9.88,63.16,8,67,5.16A8.67,8.67,0,0,0,56.2,4Z"/>
</svg>