<svg id="Layer_1" data-name="Layer 1" xmlns="http://www.w3.org/2000/svg" viewBox="0 0 52.33 57"><defs><style>.cls-1{fill:#1c1f35;}.cls-2{fill:#ffd550;}</style></defs><path class="cls-1" d="M16.5,34h-6a.5.5,0,0,1-.5-.5v-6a.5.5,0,0,1,.5-.5h6a.5.5,0,0,1,.5.5v6A.5.5,0,0,1,16.5,34ZM11,33h5V28H11Z"/><path class="cls-1" d="M16.5,47h-6a.5.5,0,0,1-.5-.5v-6a.5.5,0,0,1,.5-.5h6a.5.5,0,0,1,.5.5v6A.5.5,0,0,1,16.5,47ZM11,46h5V41H11Z"/><path class="cls-1" d="M29.5,34h-6a.5.5,0,0,1-.5-.5v-6a.5.5,0,0,1,.5-.5h6a.5.5,0,0,1,.5.5v6A.5.5,0,0,1,29.5,34ZM24,33h5V28H24Z"/><path class="cls-1" d="M29.5,47h-6a.5.5,0,0,1-.5-.5v-6a.5.5,0,0,1,.5-.5h6a.5.5,0,0,1,.5.5v6A.5.5,0,0,1,29.5,47ZM24,46h5V41H24Z"/><rect class="cls-2" x="35.5" y="27.5" width="6" height="6"/><path class="cls-1" d="M41.5,34h-6a.5.5,0,0,1-.5-.5v-6a.5.5,0,0,1,.5-.5h6a.5.5,0,0,1,.5.5v6A.5.5,0,0,1,41.5,34ZM36,33h5V28H36Z"/><path class="cls-1" d="M41.5,47h-6a.5.5,0,0,1-.5-.5v-6a.5.5,0,0,1,.5-.5h6a.5.5,0,0,1,.5.5v6A.5.5,0,0,1,41.5,47ZM36,46h5V41H36Z"/><path class="cls-2" d="M51.5,19.5H.5V8.5a3,3,0,0,1,3-3h45a3,3,0,0,1,3,3Z"/><path class="cls-1" d="M49.5,57H2.83A2.83,2.83,0,0,1,0,54.17V7.5A2.83,2.83,0,0,1,2.83,4.67H49.5A2.83,2.83,0,0,1,52.33,7.5V54.17A2.83,2.83,0,0,1,49.5,57ZM2.83,5.67A1.83,1.83,0,0,0,1,7.5V54.17A1.83,1.83,0,0,0,2.83,56H49.5a1.83,1.83,0,0,0,1.83-1.83V7.5A1.83,1.83,0,0,0,49.5,5.67Z"/><path class="cls-1" d="M40.17,10.33a.5.5,0,0,1-.5-.5V.5a.5.5,0,0,1,.5-.5.5.5,0,0,1,.5.5V9.83A.5.5,0,0,1,40.17,10.33Z"/><path class="cls-1" d="M12.17,10.33a.5.5,0,0,1-.5-.5V.5a.5.5,0,0,1,.5-.5.5.5,0,0,1,.5.5V9.83A.5.5,0,0,1,12.17,10.33Z"/><path class="cls-1" d="M51.83,19.67H.5a.5.5,0,0,1-.5-.5.5.5,0,0,1,.5-.5H51.83a.5.5,0,0,1,.5.5A.5.5,0,0,1,51.83,19.67Z"/></svg>