<svg id="Layer_1" data-name="Layer 1" xmlns="http://www.w3.org/2000/svg" viewBox="0 0 51.81 38.96"><defs><style>.cls-1{fill:#ffd550;}.cls-2{fill:#1c1f35;}.cls-3{fill:#fff;}.cls-4{fill:#141414;}</style></defs><path class="cls-1" d="M20.84,28.25A13.63,13.63,0,1,0,7.21,14.62,13.62,13.62,0,0,0,20.84,28.25Z"/><path class="cls-2" d="M20.84,29.25A14.63,14.63,0,1,1,35.46,14.62,14.64,14.64,0,0,1,20.84,29.25ZM20.84,2A12.63,12.63,0,1,0,33.46,14.62,12.63,12.63,0,0,0,20.84,2Z"/><path class="cls-2" d="M40.32,38.33a1,1,0,0,1-.77-.36,24.43,24.43,0,0,0-29-6.44A24.72,24.72,0,0,0,2.12,38a1,1,0,0,1-1.41.12,1,1,0,0,1-.12-1.4,26.49,26.49,0,0,1,9.08-7,26.89,26.89,0,0,1,22.34,0,26.55,26.55,0,0,1,9.07,7,1,1,0,0,1-.12,1.4A1,1,0,0,1,40.32,38.33Z"/><path class="cls-3" d="M47.9,38.46H37.68V20.3H47.9Z"/><path class="cls-4" d="M47.9,39H37.68a.5.5,0,0,1-.5-.5V20.3a.5.5,0,0,1,.5-.5H47.9a.5.5,0,0,1,.5.5V38.46A.5.5,0,0,1,47.9,39Zm-9.72-1H47.4V20.8H38.18Z"/><path class="cls-1" d="M47.9,27.11H37.68V20.3H47.9Z"/><path d="M47.9,27.61H37.68a.5.5,0,0,1-.5-.5V20.3a.5.5,0,0,1,.5-.5H47.9a.5.5,0,0,1,.5.5v6.81A.5.5,0,0,1,47.9,27.61Zm-9.72-1H47.4V20.8H38.18Z"/><path class="cls-4" d="M44.49,25.34h-3.4a.5.5,0,0,1,0-1h3.4a.5.5,0,0,1,0,1Z"/><path class="cls-4" d="M44.49,31h-3.4a.5.5,0,0,1-.5-.5.5.5,0,0,1,.5-.5h3.4a.5.5,0,0,1,.5.5A.5.5,0,0,1,44.49,31Z"/><path class="cls-2" d="M51.31,38.4a.5.5,0,0,1-.5-.5V28.25a.5.5,0,0,1,.5-.5.5.5,0,0,1,.5.5V37.9A.5.5,0,0,1,51.31,38.4Z"/><path class="cls-2" d="M2.73,22.73a.74.74,0,0,1-.6-.3C1.33,21.38-1.15,17.32.63,9.6A.76.76,0,0,1,1.53,9a.74.74,0,0,1,.56.9C.45,17,2.62,20.6,3.33,21.53a.75.75,0,0,1-.15,1A.74.74,0,0,1,2.73,22.73Z"/><path class="cls-2" d="M25.72,24.86a.53.53,0,0,1-.4-.19.51.51,0,0,1,.09-.71c4.8-3.64,5.3-7,5.34-7.94a.5.5,0,1,1,1,0c0,1.05-.58,4.79-5.73,8.7A.49.49,0,0,1,25.72,24.86Z"/></svg>