<svg id="Layer_1" data-name="Layer 1" xmlns="http://www.w3.org/2000/svg" viewBox="0 0 32.75 49.5"><defs><style>.cls-1{fill:#ffd550;}.cls-2{fill:#1c1f35;}.cls-3{fill:#fff;}</style></defs><path class="cls-1" d="M15,24.75l-13.3-10a1.67,1.67,0,0,1-.51-.61A1.79,1.79,0,0,1,1,13.38V5.5A1.74,1.74,0,0,1,2.75,3.75h24.5A1.74,1.74,0,0,1,29,5.5v7.79a1.76,1.76,0,0,1-.19.78,1.79,1.79,0,0,1-.51.62Z"/><path class="cls-2" d="M15,25.75a1,1,0,0,1-.6-.2l-13.3-10A2.75,2.75,0,0,1,0,13.38V5.5A2.77,2.77,0,0,1,2.75,2.75h24.5A2.77,2.77,0,0,1,30,5.5v7.79a2.74,2.74,0,0,1-1.09,2.19L15.6,25.55A1,1,0,0,1,15,25.75ZM2.75,4.75A.75.75,0,0,0,2,5.5v7.88a.8.8,0,0,0,.08.33A.82.82,0,0,0,2.3,14L15,23.5l12.7-9.61a.73.73,0,0,0,.22-.27.77.77,0,0,0,.08-.34V5.5a.75.75,0,0,0-.75-.75Z"/><path class="cls-2" d="M27,16.75H3a1,1,0,0,1,0-2H27a1,1,0,0,1,0,2Z"/><path class="cls-2" d="M27.25,46.75H2.75A2.77,2.77,0,0,1,0,44V36.12A2.71,2.71,0,0,1,.29,34.9a2.89,2.89,0,0,1,.8-1L14.4,24a1,1,0,0,1,1.2,0L28.9,34a2.81,2.81,0,0,1,.81,1A2.75,2.75,0,0,1,30,36.21V44a2.77,2.77,0,0,1-2.75,2.75ZM15,26,2.3,35.52a.73.73,0,0,0-.22.27.81.81,0,0,0-.08.34V44a.75.75,0,0,0,.75.75h24.5A.75.75,0,0,0,28,44V36.21a.76.76,0,0,0-.08-.33.67.67,0,0,0-.23-.27Z"/><path class="cls-2" d="M15,34.75a1,1,0,0,1-1-1v-9a1,1,0,0,1,2,0v9A1,1,0,0,1,15,34.75Z"/><path class="cls-2" d="M32,9.5a.76.76,0,0,1-.75-.75v-5a.75.75,0,0,1,1.5,0v5A.76.76,0,0,1,32,9.5Z"/><path class="cls-2" d="M4,43.5a.76.76,0,0,1-.75-.75v-5a.75.75,0,0,1,1.5,0v5A.76.76,0,0,1,4,43.5Z"/><path class="cls-2" d="M16,1.5H1A.76.76,0,0,1,.25.75.76.76,0,0,1,1,0H16a.76.76,0,0,1,.75.75A.76.76,0,0,1,16,1.5Z"/><path class="cls-2" d="M28,49.5H13A.75.75,0,0,1,13,48H28a.75.75,0,0,1,0,1.5Z"/><path class="cls-2" d="M28.85,31.69a.74.74,0,0,1-.46-.16l-7.85-6.19a.75.75,0,1,1,.92-1.18l7.86,6.19a.76.76,0,0,1,.12,1.06A.74.74,0,0,1,28.85,31.69Z"/><path class="cls-3" d="M19,13.5H4A.75.75,0,0,1,4,12H19a.75.75,0,0,1,0,1.5Z"/></svg>