<svg id="Layer_1" data-name="Layer 1" xmlns="http://www.w3.org/2000/svg" viewBox="0 0 65 80"><defs><style>.cls-1{fill:#ffe6a5;}.cls-2{fill:#1c1f35;}</style></defs><path class="cls-1" d="M64.5,42a32.25,32.25,0,0,1-32,32.5A32.25,32.25,0,0,1,.5,42a32.25,32.25,0,0,1,32-32.5A32.25,32.25,0,0,1,64.5,42Z"/><path class="cls-2" d="M32.5,75C14.58,75,0,60.2,0,42S14.58,9,32.5,9,65,23.8,65,42,50.42,75,32.5,75Zm0-65C15.13,10,1,24.35,1,42S15.13,74,32.5,74,64,59.64,64,42,49.87,10,32.5,10Z"/><path class="cls-1" d="M48.5,13.5A13.26,13.26,0,0,1,35,26.5a13.26,13.26,0,0,1-13.5-13A13.26,13.26,0,0,1,35,.5,13.26,13.26,0,0,1,48.5,13.5Z"/><path class="cls-2" d="M35,27A13.77,13.77,0,0,1,21,13.5,13.77,13.77,0,0,1,35,0,13.77,13.77,0,0,1,49,13.5,13.77,13.77,0,0,1,35,27ZM35,1A12.77,12.77,0,0,0,22,13.5,12.77,12.77,0,0,0,35,26,12.77,12.77,0,0,0,48,13.5,12.77,12.77,0,0,0,35,1Z"/><path class="cls-1" d="M60.5,66.5A13.26,13.26,0,0,1,47,79.5a13,13,0,1,1,0-26A13.26,13.26,0,0,1,60.5,66.5Z"/><path class="cls-2" d="M47,80A13.51,13.51,0,1,1,61,66.5,13.77,13.77,0,0,1,47,80Zm0-26A12.51,12.51,0,1,0,60,66.5,12.77,12.77,0,0,0,47,54Z"/><path class="cls-2" d="M35,21.43a7.72,7.72,0,1,1,7.71-7.72A7.72,7.72,0,0,1,35,21.43ZM35,7a6.72,6.72,0,1,0,6.71,6.71A6.72,6.72,0,0,0,35,7Z"/><path class="cls-2" d="M41.69,12H28.36a.5.5,0,0,1-.5-.5.51.51,0,0,1,.5-.5H41.69a.51.51,0,0,1,.5.5A.5.5,0,0,1,41.69,12Z"/><path class="cls-2" d="M41.69,16.43H28.36a.5.5,0,0,1-.5-.5.51.51,0,0,1,.5-.5H41.69a.51.51,0,0,1,.5.5A.5.5,0,0,1,41.69,16.43Z"/><path class="cls-2" d="M35,20.88c-1.87,0-3.28-3.08-3.28-7.17S33.16,6.55,35,6.55s3.27,3.08,3.27,7.16S36.89,20.88,35,20.88ZM35,7.55c-1.08,0-2.28,2.64-2.28,6.16S34,19.88,35,19.88s2.27-2.64,2.27-6.17S36.1,7.55,35,7.55Z"/><path class="cls-2" d="M44,47.89a.52.52,0,0,1-.43-.24.51.51,0,0,1,.17-.69l11.42-6.91a.5.5,0,1,1,.52.85L44.27,47.81A.5.5,0,0,1,44,47.89Z"/><path class="cls-2" d="M37,51.86a.5.5,0,0,1-.25-.93l5.17-3a.5.5,0,1,1,.5.86l-5.17,3A.45.45,0,0,1,37,51.86Z"/><path class="cls-2" d="M21.71,56.5c-.27,0-.53,0-.79,0a7.11,7.11,0,0,1-4-1.87L9.18,47.36a2.13,2.13,0,0,1-.57-.88,2.2,2.2,0,0,1-.08-1,2.15,2.15,0,0,1,1.26-1.6l3.44-1.48a.55.55,0,0,1,.4,0l5.5,2.36L24,41.9l-5.77-5.19a2.15,2.15,0,0,1-.58-.88,2.25,2.25,0,0,1-.1-1.06,2.18,2.18,0,0,1,.43-1,2.15,2.15,0,0,1,.84-.65l3.38-1.45a.47.47,0,0,1,.35,0l12.07,4,8.89-5.23a7,7,0,0,1,9,1.61l3.81,4.67a.51.51,0,0,1-.14.75l-31,18A7.09,7.09,0,0,1,21.71,56.5ZM13.43,43.36l-3.24,1.39a1,1,0,0,0-.44.34,1.14,1.14,0,0,0-.19,1.07,1.12,1.12,0,0,0,.3.47h0l7.72,7.23a6.05,6.05,0,0,0,7.18.82L55.24,36.94l-3.43-4.22a6.1,6.1,0,0,0-3.62-2.13,6,6,0,0,0-4.13.75L35,36.69a.5.5,0,0,1-.41,0l-12.1-4-3.2,1.38a1.19,1.19,0,0,0-.45.35,1.08,1.08,0,0,0-.23.51,1.22,1.22,0,0,0,.05.57,1.14,1.14,0,0,0,.31.47l6.29,5.65a.56.56,0,0,1,.16.43.51.51,0,0,1-.25.38l-5.73,3.28a.54.54,0,0,1-.45,0Z"/><path class="cls-2" d="M22.75,53.16a.51.51,0,0,1-.43-.24.5.5,0,0,1,.17-.69l11.42-6.91a.5.5,0,1,1,.51.85L23,53.08A.5.5,0,0,1,22.75,53.16Z"/><path class="cls-2" d="M47,74.73a1.07,1.07,0,0,1-.52-.14l-6-3.34a1.08,1.08,0,0,1-.53-.91V63.68a1.08,1.08,0,0,1,.53-.91l6-3.34a1,1,0,0,1,1,0l5.95,3.34a1.09,1.09,0,0,1,.39.38,1.08,1.08,0,0,1,.14.53v6.66a1.1,1.1,0,0,1-.14.53,1.09,1.09,0,0,1-.39.38l-5.95,3.34A1,1,0,0,1,47,74.73ZM47,60.3l-6,3.34,0,6.7,6,3.38,6-3.38V63.68Z"/><path class="cls-2" d="M47.08,67.51a.5.5,0,0,1-.24-.06l-6.56-3.61a.5.5,0,1,1,.48-.88l6.32,3.48L53.27,63a.5.5,0,0,1,.49.88l-6.44,3.61A.5.5,0,0,1,47.08,67.51Z"/><path class="cls-2" d="M47,74.73a.5.5,0,0,1-.5-.5V67a.5.5,0,0,1,.5-.5.5.5,0,0,1,.5.5v7.22A.51.51,0,0,1,47,74.73Z"/></svg>