<svg id="Layer_1" data-name="Layer 1" xmlns="http://www.w3.org/2000/svg" viewBox="0 0 52 58.08"><defs><style>.cls-1{fill:#ffd550;}.cls-2{fill:#1c1f35;}</style></defs><path d="M4.83,42.75a1,1,0,0,1-1-1V14.92a1,1,0,0,1,2,0V41.75A1,1,0,0,1,4.83,42.75Z"/><path d="M43.17,42.75a1,1,0,0,1-1-1V14.92a1,1,0,0,1,2,0V41.75A1,1,0,0,1,43.17,42.75Z"/><path d="M16.33,33.17a1,1,0,0,1-1-1V28.33a1,1,0,0,1,2,0v3.84A1,1,0,0,1,16.33,33.17Z"/><path d="M24,33.17a1,1,0,0,1-1-1V26.42a1,1,0,0,1,2,0v5.75A1,1,0,0,1,24,33.17Z"/><path d="M31.67,33.17a1,1,0,0,1-1-1V24.5a1,1,0,0,1,2,0v7.67A1,1,0,0,1,31.67,33.17Z"/><path d="M45.08,15.92H2.92A2.92,2.92,0,0,1,0,13V9.17A2.92,2.92,0,0,1,2.92,6.25H45.08A2.92,2.92,0,0,1,48,9.17V13A2.92,2.92,0,0,1,45.08,15.92ZM2.92,8.25A.92.92,0,0,0,2,9.17V13a.92.92,0,0,0,.92.92H45.08A.92.92,0,0,0,46,13V9.17a.92.92,0,0,0-.92-.92Z"/><path class="cls-1" d="M45.08,7.25H2.92A1.92,1.92,0,0,0,1,9.17V13a1.92,1.92,0,0,0,1.92,1.92H45.08A1.92,1.92,0,0,0,47,13V9.17A1.92,1.92,0,0,0,45.08,7.25Z"/><path d="M45.08,15.92H2.92A2.92,2.92,0,0,1,0,13V9.17A2.92,2.92,0,0,1,2.92,6.25H45.08A2.92,2.92,0,0,1,48,9.17V13A2.92,2.92,0,0,1,45.08,15.92ZM2.92,8.25A.92.92,0,0,0,2,9.17V13a.92.92,0,0,0,.92.92H45.08A.92.92,0,0,0,46,13V9.17a.92.92,0,0,0-.92-.92Z"/><path class="cls-2" d="M17.4,58A.72.72,0,0,1,17,57.9a5.26,5.26,0,0,1-2-3.52,6.11,6.11,0,0,1,1.29-4.63.75.75,0,0,1,1.05-.14.76.76,0,0,1,.14,1.06,4.62,4.62,0,0,0-1,3.49,3.81,3.81,0,0,0,1.42,2.53A.74.74,0,0,1,17.4,58Z"/><path class="cls-2" d="M22,2H1A1,1,0,0,1,1,0H22a1,1,0,0,1,0,2Z"/><path class="cls-2" d="M51,29a1,1,0,0,1-1-1V18a1,1,0,0,1,2,0V28A1,1,0,0,1,51,29Z"/><path d="M24,50.42a1,1,0,0,1-1-1V41.75a1,1,0,0,1,2,0v7.67A1,1,0,0,1,24,50.42Z"/><path class="cls-1" d="M24,57.08a3.83,3.83,0,1,0-3.83-3.83A3.82,3.82,0,0,0,24,57.08Z"/><path d="M24,58.08a4.83,4.83,0,1,1,4.83-4.83A4.83,4.83,0,0,1,24,58.08Zm0-7.66a2.83,2.83,0,1,0,2.83,2.83A2.83,2.83,0,0,0,24,50.42Z"/><path d="M47,42.75H1a1,1,0,0,1,0-2H47a1,1,0,0,1,0,2Z"/></svg>