<svg xmlns="http://www.w3.org/2000/svg" viewBox="0 0 30.5 17.5" fill="currentColor">
 <path d="M28.71,0H1.79A1.77,1.77,0,0,0,0,1.75v14A1.77,1.77,0,0,0,1.79,17.5H28.71a1.77,1.77,0,0,0,1.79-1.75v-14A1.77,1.77,0,0,0,28.71,0ZM9,16,1.5,9.41V8.09L9,1.5H21.47L29,8.09V9.41L21.47,16ZM29,1.75V6.1L23.75,1.5h5A.27.27,0,0,1,29,1.75ZM1.79,1.5h5L1.5,6.1V1.75A.27.27,0,0,1,1.79,1.5ZM1.5,15.75V11.4L6.75,16h-5A.27.27,0,0,1,1.5,15.75ZM28.71,16h-5L29,11.4v4.35A.27.27,0,0,1,28.71,16Z"/>
 <path d="M15.25,5A4.25,4.25,0,1,0,19.5,9.25,4.26,4.26,0,0,0,15.25,5Zm0,7A2.75,2.75,0,1,1,18,9.25,2.75,2.75,0,0,1,15.25,12Z"/>
</svg>