<svg xmlns="http://www.w3.org/2000/svg" viewBox="0 0 25.5 29.49" fill="currentColor">
 <path d="M25.46,8a.77.77,0,0,0-.06-.61.74.74,0,0,0-.38-.3,1.85,1.85,0,0,0-.4-.34L13.62.24a1.7,1.7,0,0,0-1.74,0L7.06,3.08a.74.74,0,0,0-1,.28A.82.82,0,0,0,6,3.7l-5.13,3a1.85,1.85,0,0,0-.4.34.76.76,0,0,0-.38.31A.75.75,0,0,0,0,8a1.65,1.65,0,0,0,0,.31V21.21a1.84,1.84,0,0,0,.23.89,1.82,1.82,0,0,0,.65.67l11,6.48a1.71,1.71,0,0,0,.88.24,1.65,1.65,0,0,0,.87-.24l11-6.48a1.82,1.82,0,0,0,.65-.67,1.84,1.84,0,0,0,.23-.89h0V8.28A1.65,1.65,0,0,0,25.46,8ZM12.65,1.52a.19.19,0,0,1,.1,0,.19.19,0,0,1,.11,0L23.34,7.71l-4.22,2.48L8.55,3.94Zm.21,12.36L2.17,7.7,7.08,4.81l10.56,6.25ZM1.65,21.48a.38.38,0,0,1-.11-.11.47.47,0,0,1,0-.17V9L12,15.11V27.58ZM24,21.37a.36.36,0,0,1-.1.11L13.5,27.58V15.24L18,12.59v5.15a.75.75,0,0,0,1.5,0v-6L24,9.06V21.2A.47.47,0,0,1,24,21.37Z"/>
</svg>