<svg xmlns="http://www.w3.org/2000/svg" viewBox="0 0 30 30" fill="currentColor">
 <path d="M29.92.62a1,1,0,0,0-.54-.54A1,1,0,0,0,29,0H19.45a1,1,0,0,0,0,2h7.14l-9.75,9.75a1,1,0,0,0,0,1.41,1,1,0,0,0,1.41,0L28,3.41v7.14a1,1,0,0,0,2,0V1A1,1,0,0,0,29.92.62Z"/>
 <path d="M23.91,16.55a1,1,0,0,0-1,1V27.73a.27.27,0,0,1-.27.27H2.27A.27.27,0,0,1,2,27.73V7.36a.27.27,0,0,1,.27-.27H12.45a1,1,0,0,0,0-2H2.27A2.27,2.27,0,0,0,0,7.36V27.73A2.27,2.27,0,0,0,2.27,30H22.64a2.27,2.27,0,0,0,2.27-2.27V17.55A1,1,0,0,0,23.91,16.55Z"/>
</svg>