<svg xmlns="http://www.w3.org/2000/svg" viewBox="0 0 19.42 19.42" fill="currentColor">
 <path d="M17.87,0H1.66A1.58,1.58,0,0,0,0,1.51V17.75a1.71,1.71,0,0,0,1.66,1.67h16.2a1.63,1.63,0,0,0,1.56-1.67V1.51A1.49,1.49,0,0,0,17.87,0ZM6,16.19H3.24V7.54H6Zm-1.3-10h0A1.42,1.42,0,0,1,3.24,4.73a1.43,1.43,0,0,1,1.5-1.49A1.43,1.43,0,0,1,6.23,4.73,1.44,1.44,0,0,1,4.72,6.22Zm11.47,10H13.4V11.46c0-1.14-.4-1.91-1.41-1.91a1.51,1.51,0,0,0-1.42,1,1.77,1.77,0,0,0-.1.68v4.93H7.69V7.54h2.78v1.2A2.82,2.82,0,0,1,13,7.33c1.83,0,3.21,1.21,3.21,3.8Z"/>
</svg>