<svg aria-hidden="true" style="position: absolute; width: 0; height: 0; overflow: hidden;" version="1.1"
 xmlns="http://www.w3.org/2000/svg"
 xmlns:xlink="http://www.w3.org/1999/xlink">
 <defs>
  <symbol id="icon-arrow-down" viewBox="0 0 55 32">
   <path d="M53.993 1.28c-0.789-0.789-1.88-1.276-3.084-1.276s-2.294 0.488-3.084 1.276l-20.189 20.189-20.189-20.189c-0.777-0.726-1.824-1.171-2.975-1.171-2.41 0-4.364 1.954-4.364 4.364 0 1.151 0.446 2.198 1.173 2.977l-0.002-0.003 23.273 23.273c0.789 0.789 1.88 1.276 3.084 1.276s2.294-0.488 3.084-1.276l23.273-23.273c0.789-0.789 1.276-1.88 1.276-3.084s-0.488-2.294-1.276-3.084l0 0z"></path>
  </symbol>
  <symbol id="icon-arrow-next" viewBox="0 0 18 32">
   <path d="M17.262 14.738l-14.222-14.222c-0.323-0.323-0.769-0.523-1.262-0.523-0.986 0-1.785 0.799-1.785 1.785 0 0.493 0.2 0.939 0.523 1.262v0l12.978 12.96-12.978 12.96c-0.325 0.322-0.526 0.769-0.526 1.262s0.201 0.94 0.526 1.262l0 0c0.322 0.325 0.769 0.526 1.262 0.526s0.94-0.201 1.262-0.526l14.222-14.222c0.325-0.322 0.526-0.769 0.526-1.262s-0.201-0.94-0.526-1.262l-0-0z"></path>
  </symbol>
  <symbol id="icon-arrow-tail-next" viewBox="0 0 34 32">
   <path d="M34.097 15.448v0c-0.002-0.026-0.003-0.057-0.003-0.088s0.001-0.062 0.003-0.092l-0 0.004c-0.072-0.136-0.16-0.253-0.264-0.353l-0.001-0-14.367-14.433c-0.299-0.299-0.713-0.484-1.17-0.484s-0.87 0.185-1.17 0.484l0-0c-0.299 0.299-0.484 0.713-0.484 1.17s0.185 0.87 0.484 1.17l-0-0 11.564 11.52h-27.034c-0.914 0-1.655 0.741-1.655 1.655s0.741 1.655 1.655 1.655v0h27.034l-11.564 11.52c-0.325 0.303-0.527 0.733-0.527 1.211 0 0.914 0.741 1.655 1.655 1.655 0.478 0 0.908-0.202 1.21-0.526l0.001-0.001 14.257-14.345c0.105-0.1 0.193-0.217 0.261-0.346l0.004-0.007c-0.002-0.026-0.003-0.057-0.003-0.088s0.001-0.062 0.003-0.092l-0 0.004c0.070-0.177 0.11-0.382 0.11-0.596v-0c0.017-0.090 0.027-0.193 0.027-0.298s-0.010-0.208-0.028-0.308l0.002 0.010z"></path>
  </symbol>
  <symbol id="icon-arrow-tail-prev" viewBox="0 0 38 32">
   <path d="M35.478 13.913h-28.355l10.351-10.351c0.347-0.372 0.56-0.872 0.56-1.423 0-1.153-0.934-2.087-2.087-2.087-0.55 0-1.051 0.213-1.424 0.561l0.001-0.001-13.913 13.913c-0.194 0.181-0.345 0.405-0.441 0.656l-0.004 0.012c-0.091 0.223-0.144 0.481-0.144 0.751s0.053 0.529 0.149 0.765l-0.005-0.014c0.1 0.263 0.252 0.486 0.444 0.667l0.001 0.001 13.913 13.913c0.378 0.377 0.899 0.61 1.475 0.61s1.097-0.233 1.475-0.61l-0 0c0.377-0.378 0.61-0.899 0.61-1.475s-0.233-1.097-0.61-1.475l0 0-10.351-10.24h28.355c1.153 0 2.087-0.934 2.087-2.087s-0.934-2.087-2.087-2.087v0z"></path>
  </symbol>
  <symbol id="icon-coast-brand" viewBox="0 0 56 32">
   <path d="M52.498 0h-49.225c-0.011-0-0.024-0-0.037-0-1.775 0-3.216 1.428-3.236 3.198l-0 0.002v25.6c0.021 1.772 1.462 3.2 3.236 3.2 0.013 0 0.026-0 0.039-0l-0.002 0h49.225c0.011 0 0.024 0 0.037 0 1.775 0 3.216-1.428 3.236-3.198l0-0.002v-25.6c-0.021-1.772-1.462-3.2-3.236-3.2-0.013 0-0.026 0-0.039 0l0.002-0zM16.457 29.257l-13.714-12.050v-2.414l13.714-12.050h22.802l13.769 12.050v2.414l-13.769 12.050zM53.029 3.2v7.954l-9.6-8.411h9.143c0.245 0.018 0.439 0.212 0.457 0.455l0 0.002zM3.273 2.743h9.143l-9.673 8.411v-7.954c0.019-0.257 0.232-0.459 0.492-0.459 0.013 0 0.026 0.001 0.040 0.002l-0.002-0zM2.743 28.8v-7.954l9.6 8.411h-9.143c-0.245-0.018-0.439-0.212-0.457-0.456l-0-0.002zM52.498 29.257h-9.143l9.673-8.411v7.954c-0.019 0.257-0.232 0.459-0.492 0.459-0.013 0-0.026-0.001-0.040-0.002l0.002 0z"></path>
   <path d="M27.886 9.143c-4.292 0-7.771 3.479-7.771 7.771s3.479 7.771 7.771 7.771c4.292 0 7.771-3.479 7.771-7.771v0c-0.010-4.288-3.484-7.761-7.77-7.771h-0.001zM27.886 21.943c-2.777 0-5.029-2.251-5.029-5.029s2.251-5.029 5.029-5.029c2.777 0 5.029 2.251 5.029 5.029v0c0 2.777-2.251 5.029-5.029 5.029v0z"></path>
  </symbol>
  <symbol id="icon-delivery-brand" viewBox="0 0 28 32">
   <path d="M27.627 8.681c0.025-0.076 0.040-0.164 0.040-0.256 0-0.149-0.039-0.289-0.107-0.41l0.002 0.004c-0.097-0.15-0.239-0.264-0.407-0.324l-0.006-0.002c-0.125-0.141-0.268-0.263-0.426-0.364l-0.008-0.005-11.936-7.064c-0.27-0.163-0.596-0.26-0.944-0.26s-0.674 0.097-0.952 0.265l0.008-0.005-5.23 3.082c-0.112-0.063-0.246-0.1-0.388-0.1-0.297 0-0.556 0.161-0.695 0.4l-0.002 0.004c-0.042 0.099-0.066 0.215-0.066 0.336 0 0.012 0 0.023 0.001 0.035l-0-0.002-5.567 3.255c-0.166 0.105-0.309 0.228-0.432 0.367l-0.002 0.002c-0.174 0.066-0.316 0.183-0.41 0.333l-0.002 0.003c-0.086 0.127-0.138 0.284-0.138 0.453 0 0.090 0.015 0.177 0.042 0.258l-0.002-0.006c-0.005 0.050-0.008 0.109-0.008 0.168s0.003 0.118 0.009 0.176l-0.001-0.007v13.998c0 0.354 0.093 0.687 0.255 0.976l-0.005-0.010c0.171 0.302 0.41 0.547 0.697 0.722l0.009 0.005 11.936 7.032c0.271 0.164 0.598 0.26 0.948 0.26 0.002 0 0.005 0 0.007 0h-0c0.004 0 0.009 0 0.014 0 0.344 0 0.665-0.097 0.938-0.265l-0.008 0.004 11.936-7.032c0.295-0.18 0.534-0.425 0.7-0.717l0.005-0.010c0.157-0.278 0.249-0.611 0.25-0.966v-14.031c-0.010-0.113-0.030-0.217-0.057-0.316l0.003 0.013zM13.727 1.649c0.016-0.005 0.035-0.007 0.054-0.007s0.038 0.003 0.056 0.008l-0.001-0c0.018-0.006 0.038-0.009 0.060-0.009s0.042 0.003 0.061 0.009l-0.001-0 11.372 6.717-4.579 2.691-11.47-6.782zM13.955 15.061l-11.6-6.706 5.328-3.136 11.459 6.782zM1.79 23.308c-0.048-0.032-0.088-0.071-0.118-0.118l-0.001-0.002c-0.005-0.028-0.008-0.060-0.008-0.092s0.003-0.064 0.009-0.095l-0 0.003v-13.238l11.35 6.63v13.531zM26.043 23.189c-0.028 0.048-0.064 0.087-0.107 0.119l-0.001 0.001-11.285 6.619v-13.39l4.883-2.876v5.588c0 0.449 0.364 0.814 0.814 0.814s0.814-0.364 0.814-0.814v0-6.511l4.883-2.908v13.173c0.005 0.028 0.008 0.060 0.008 0.092s-0.003 0.064-0.009 0.095l0-0.003z"></path>
  </symbol>
  <symbol id="icon-email" viewBox="0 0 42 32">
   <path d="M39 0h-36c-0.004-0-0.009-0-0.014-0-0.459 0-0.895 0.103-1.284 0.288l0.018-0.008-0.16-0.12-0.18 0.28c-0.811 0.437-1.358 1.272-1.38 2.237l-0 0.003v26.64c0.096 1.502 1.337 2.684 2.855 2.684 0.051 0 0.102-0.001 0.152-0.004l-0.007 0h36c0.043 0.002 0.094 0.004 0.145 0.004 1.517 0 2.759-1.182 2.854-2.675l0-0.008v-26.64c-0.096-1.502-1.337-2.684-2.855-2.684-0.051 0-0.102 0.001-0.153 0.004l0.007-0zM38.5 2l-16.66 11.78-17.56-11.78zM39 30h-36c-0.58 0-1-0.36-1-0.68v-26.44l19.86 13.34 18.14-12.82v26c0 0.24-0.42 0.6-1 0.6z"></path>
  </symbol>
  <symbol id="icon-facebook" viewBox="0 0 34 32">
   <path d="M17.188 0c-9.49 0-17.188 7.213-17.188 16.1 0.225 8.213 6.435 14.909 14.414 15.892l0.080 0.008v-11.247h-4.351v-4.653h4.351v-3.548c0-4.033 2.577-6.259 6.494-6.259 1.374 0.018 2.707 0.127 4.011 0.321l-0.162-0.020v3.967h-2.176c-2.126 0-2.795 1.239-2.795 2.51v3.029h4.77l-0.77 4.653h-4v11.247c8.059-0.991 14.269-7.687 14.493-15.877l0.001-0.022c0-8.887-7.682-16.1-17.172-16.1z"></path>
  </symbol>
  <symbol id="icon-global-brand" viewBox="0 0 32 32">
   <path d="M16 0c-8.837 0-16 7.163-16 16s7.163 16 16 16c8.837 0 16-7.163 16-16v0c0-8.837-7.163-16-16-16v0zM16 29.538c-0.923 0-2.462-2.572-3.237-7.385h6.474c-0.775 4.812-2.314 7.385-3.237 7.385zM12.468 19.692c-0.098-1.145-0.16-2.363-0.16-3.692s0.062-2.548 0.16-3.692h7.065c0.098 1.145 0.16 2.363 0.16 3.692s-0.062 2.548-0.16 3.692zM2.462 16c-0-0.012-0-0.025-0-0.039 0-1.302 0.193-2.56 0.553-3.745l-0.024 0.091h7.015c-0.098 1.231-0.16 2.462-0.16 3.692s0.062 2.462 0.16 3.692h-7.015c-0.336-1.094-0.529-2.351-0.529-3.653 0-0.014 0-0.027 0-0.041v0.002zM16 2.462c0.923 0 2.462 2.572 3.237 7.385h-6.474c0.775-4.812 2.314-7.385 3.237-7.385zM21.994 12.308h7.015c0.334 1.106 0.526 2.377 0.526 3.692s-0.192 2.587-0.55 3.786l0.024-0.094h-7.015c0.106-0.924 0.167-1.994 0.167-3.078 0-0.216-0.002-0.431-0.007-0.646l0.001 0.032c0.004-0.183 0.007-0.398 0.007-0.614 0-1.084-0.061-2.155-0.178-3.207l0.012 0.129zM28.049 9.846h-6.338c-0.334-2.546-1.044-4.854-2.077-6.976l0.059 0.133c3.667 1.061 6.63 3.53 8.321 6.768l0.036 0.075zM12.308 3.003c-0.975 1.989-1.685 4.297-2.006 6.729l-0.012 0.114h-6.338c1.727-3.313 4.689-5.782 8.261-6.819l0.096-0.024zM3.951 22.154h6.338c0.334 2.546 1.043 4.854 2.077 6.976l-0.059-0.133c-3.667-1.061-6.63-3.53-8.321-6.768l-0.036-0.075zM19.692 28.997c0.975-1.989 1.685-4.297 2.006-6.729l0.012-0.114h6.338c-1.727 3.313-4.689 5.782-8.261 6.819l-0.096 0.024z"></path>
  </symbol>
  <symbol id="icon-instagram" viewBox="0 0 33 32">
   <path d="M23.565 0h-13.858c-0.046-0.001-0.099-0.001-0.153-0.001-5.202 0-9.433 4.156-9.554 9.329l-0 0.011v13.389c0.121 5.184 4.352 9.34 9.554 9.34 0.054 0 0.108-0 0.161-0.001l-0.008 0h13.858c0.041 0.001 0.088 0.001 0.136 0.001 5.202 0 9.433-4.156 9.554-9.329l0-0.011v-13.389c-0.121-5.184-4.352-9.34-9.554-9.34-0.048 0-0.096 0-0.144 0.001l0.007-0zM30.494 22.661c-0.027 1.854-0.804 3.522-2.040 4.718l-0.002 0.002c-1.266 1.212-2.986 1.958-4.881 1.958-0.002 0-0.004 0-0.006 0h-13.857c-0.007 0-0.015 0-0.023 0-1.895 0-3.615-0.746-4.884-1.961l0.003 0.002c-1.241-1.194-2.015-2.865-2.025-4.718v-13.391c0.029-1.83 0.8-3.474 2.023-4.651l0.002-0.002c1.279-1.204 3.003-1.948 4.902-1.958h13.86c1.894 0.015 3.612 0.757 4.891 1.962l-0.004-0.003c1.238 1.198 2.015 2.865 2.042 4.715l0 0.005z"></path>
   <path d="M26.427 5.49c-0.234-0.097-0.506-0.153-0.792-0.153-0.57 0-1.087 0.224-1.468 0.589l0.001-0.001c-0.279 0.269-0.48 0.617-0.567 1.008l-0.003 0.013c-0.025 0.117-0.039 0.251-0.039 0.389 0 0.277 0.057 0.54 0.161 0.779l-0.005-0.013c0.16 0.38 0.426 0.69 0.762 0.899l0.008 0.005c0.326 0.21 0.724 0.335 1.151 0.335 0.285 0 0.556-0.056 0.805-0.156l-0.014 0.005c0.265-0.109 0.492-0.256 0.688-0.437l-0.002 0.001c0.183-0.184 0.334-0.4 0.446-0.639l0.006-0.014c0.095-0.224 0.151-0.484 0.151-0.757 0-0.005-0-0.009-0-0.014v0.001c-0.001-0.414-0.132-0.797-0.355-1.111l0.004 0.006c-0.232-0.33-0.551-0.584-0.923-0.732l-0.014-0.005z"></path>
   <path d="M16.636 8c-0.016-0-0.034-0-0.053-0-1.698 0-3.279 0.506-4.598 1.375l0.031-0.019c-1.352 0.862-2.407 2.083-3.043 3.531l-0.020 0.051c-0.405 0.906-0.642 1.964-0.642 3.077 0 0.546 0.057 1.079 0.165 1.593l-0.009-0.050c0.35 1.624 1.155 3.023 2.273 4.098l0.003 0.003c1.153 1.105 2.626 1.884 4.267 2.185l0.051 0.008c0.493 0.099 1.061 0.156 1.641 0.156 1.119 0 2.188-0.211 3.171-0.595l-0.059 0.020c1.534-0.623 2.801-1.637 3.715-2.92l0.017-0.026c0.852-1.234 1.361-2.761 1.361-4.408 0-2.212-0.919-4.21-2.396-5.632l-0.003-0.002c-1.511-1.493-3.582-2.422-5.87-2.443l-0.004-0zM22.059 17.038c-0.225 1.087-0.759 2.024-1.505 2.743l-0.002 0.002c-0.769 0.715-1.735 1.229-2.807 1.45l-0.038 0.007c-0.324 0.064-0.696 0.101-1.076 0.101-0.763 0-1.492-0.148-2.159-0.416l0.039 0.014c-1.026-0.418-1.872-1.098-2.482-1.958l-0.012-0.017c-0.577-0.823-0.922-1.844-0.922-2.947 0-1.474 0.617-2.804 1.606-3.746l0.002-0.002c1.022-0.973 2.407-1.572 3.933-1.572 1.144 0 2.209 0.336 3.102 0.916l-0.022-0.014c0.892 0.574 1.593 1.376 2.028 2.326l0.014 0.034c0.261 0.594 0.413 1.287 0.413 2.015 0 0.377-0.041 0.744-0.118 1.098l0.006-0.034z"></path>
  </symbol>
  <symbol id="icon-link" viewBox="0 0 32 32">
   <path d="M31.915 0.661c-0.111-0.262-0.314-0.465-0.569-0.573l-0.007-0.003c-0.119-0.052-0.259-0.084-0.405-0.085h-10.187c-0.589 0-1.067 0.478-1.067 1.067s0.478 1.067 1.067 1.067v0h7.616l-10.4 10.4c-0.192 0.193-0.31 0.459-0.31 0.752s0.119 0.559 0.31 0.752l-0-0c0.193 0.192 0.459 0.31 0.752 0.31s0.559-0.118 0.752-0.31l10.4-10.4v7.616c0 0.589 0.478 1.067 1.067 1.067s1.067-0.478 1.067-1.067v0-10.187c-0.002-0.147-0.033-0.286-0.088-0.412l0.003 0.007z"></path>
   <path d="M25.504 17.653c-0.589 0-1.067 0.478-1.067 1.067v0 10.859c0 0.159-0.129 0.288-0.288 0.288h-21.728c-0.159 0-0.288-0.129-0.288-0.288v0-21.728c0-0.159 0.129-0.288 0.288-0.288h10.859c0.589 0 1.067-0.478 1.067-1.067s-0.478-1.067-1.067-1.067v0h-10.859c-1.337 0-2.421 1.084-2.421 2.421v0 21.728c0 1.337 1.084 2.421 2.421 2.421h21.728c1.337 0 2.421-1.084 2.421-2.421v0-10.859c0-0.589-0.478-1.067-1.067-1.067v0z"></path>
  </symbol>
  <symbol id="icon-linkedin" viewBox="0 0 32 32">
   <path d="M29.446 0h-26.711c-0.040-0.002-0.087-0.003-0.134-0.003-1.399 0-2.539 1.103-2.601 2.486l-0 0.006v26.76c0.036 1.5 1.237 2.707 2.731 2.752l0.004 0h26.694c1.433-0.063 2.571-1.24 2.571-2.683 0-0.024-0-0.048-0.001-0.072l0 0.004v-26.76c0-0.010 0-0.023 0-0.035 0-1.356-1.099-2.455-2.455-2.455-0.035 0-0.070 0.001-0.104 0.002l0.005-0zM9.887 26.678h-4.548v-14.253h4.548zM7.745 10.2v0c-0.020 0.001-0.043 0.001-0.067 0.001-1.292 0-2.34-1.048-2.34-2.34 0-0.024 0-0.047 0.001-0.070l-0 0.003c-0.001-0.030-0.002-0.066-0.002-0.102 0-1.301 1.055-2.356 2.356-2.356 0.041 0 0.082 0.001 0.123 0.003l-0.006-0c0.030-0.001 0.066-0.002 0.101-0.002 1.301 0 2.356 1.055 2.356 2.356 0 0.036-0.001 0.071-0.002 0.106l0-0.005c0.001 0.025 0.002 0.055 0.002 0.085 0 1.31-1.062 2.373-2.373 2.373-0.041 0-0.082-0.001-0.123-0.003l0.006 0zM26.645 26.678h-4.564v-7.794c0-1.878-0.659-3.147-2.323-3.147-1.072 0.001-1.985 0.68-2.334 1.631l-0.006 0.017c-0.107 0.291-0.168 0.626-0.168 0.977 0 0.051 0.001 0.101 0.004 0.151l-0-0.007v8.124h-4.581v-14.204h4.581v1.977c0.818-1.4 2.314-2.326 4.026-2.326 0.050 0 0.101 0.001 0.151 0.002l-0.007-0c3.015 0 5.289 1.994 5.289 6.262z"></path>
  </symbol>
  <symbol id="icon-phone" viewBox="0 0 34 32">
   <path d="M32.96 21.084c-0.506-0.597-1.198-1.022-1.986-1.187l-0.023-0.004-4.284-0.907c-0.217-0.042-0.466-0.065-0.721-0.065-0.494 0-0.967 0.089-1.404 0.252l0.028-0.009c-0.675 0.266-1.235 0.701-1.646 1.252l-0.007 0.010-0.853 1.227c-2.578-1.049-10.24-4.64-11.218-10.276l1.6-0.907c0.617-0.368 1.097-0.911 1.378-1.56l0.008-0.022c0.195-0.407 0.309-0.884 0.309-1.388 0-0.252-0.028-0.497-0.082-0.732l0.004 0.022-0.96-4.107c-0.198-0.815-0.668-1.499-1.306-1.967l-0.010-0.007c-0.609-0.445-1.373-0.713-2.2-0.713-0.039 0-0.078 0.001-0.117 0.002l0.006-0-6.88 0.249c-0.369 0.014-0.716 0.098-1.031 0.238l0.018-0.007c-0.339 0.144-0.628 0.342-0.871 0.587l-0 0c-0.235 0.242-0.423 0.532-0.545 0.854l-0.006 0.017c-0.103 0.27-0.163 0.582-0.163 0.908 0 0.043 0.001 0.086 0.003 0.129l-0-0.006c0.249 3.876 1.404 13.547 7.004 19.556 5.359 5.842 13.028 9.491 21.549 9.491 0.331 0 0.66-0.005 0.988-0.016l-0.048 0.001h1.778c0.694-0.044 1.314-0.334 1.779-0.783l-0.001 0.001c0.463-0.453 0.753-1.080 0.764-1.776l0-0.002v-6.222c-0.020-0.824-0.341-1.57-0.856-2.136l0.002 0.003zM32 29.369c-0.009 0.214-0.095 0.407-0.232 0.552l0-0c-0.171 0.151-0.393 0.249-0.637 0.266l-0.003 0c-9.422 0.409-17.084-2.578-22.827-8.889-5.191-5.564-6.293-14.756-6.524-18.436-0.009-0.043-0.014-0.092-0.014-0.142s0.005-0.099 0.015-0.147l-0.001 0.005c0.034-0.104 0.089-0.194 0.16-0.267l-0 0c0.077-0.085 0.172-0.151 0.279-0.194l0.005-0.002c0.109-0.052 0.237-0.084 0.372-0.089l0.002-0 6.933-0.249c0.002 0 0.004 0 0.006 0 0.426 0 0.82 0.14 1.137 0.377l-0.005-0.004c0.312 0.226 0.54 0.552 0.637 0.931l0.002 0.011 0.942 4.107c0.046 0.144 0.073 0.309 0.073 0.48s-0.027 0.336-0.076 0.491l0.003-0.011c-0.159 0.323-0.403 0.584-0.703 0.76l-0.008 0.005-1.778 0.996c-0.276 0.144-0.496 0.364-0.636 0.632l-0.004 0.008c-0.099 0.202-0.157 0.44-0.157 0.691 0 0.076 0.005 0.151 0.016 0.224l-0.001-0.008c0.978 6.578 9.049 10.507 12.444 11.893 0.153 0.059 0.33 0.093 0.516 0.093s0.362-0.034 0.526-0.096l-0.010 0.003c0.359-0.090 0.657-0.307 0.85-0.599l0.003-0.005 0.96-1.351c0.209-0.282 0.493-0.498 0.823-0.618l0.012-0.004c0.217-0.090 0.468-0.142 0.732-0.142 0.131 0 0.259 0.013 0.383 0.037l-0.012-0.002 4.32 0.907c0.404 0.092 0.75 0.299 1.012 0.585l0.001 0.002c0.237 0.27 0.384 0.624 0.391 1.012l0 0.002z"></path>
  </symbol>
  <symbol id="icon-play" viewBox="0 0 21 32">
   <path d="M20.704 15.019c-0.142-0.316-0.337-0.583-0.577-0.803l-0.002-0.002-16.201-13.648c-0.413-0.356-0.955-0.572-1.547-0.572-1.306 0-2.367 1.054-2.377 2.358v27.297c0.004 1.31 1.067 2.371 2.377 2.371 0.592 0 1.134-0.217 1.55-0.575l-0.003 0.003 16.201-13.673c0.256-0.215 0.464-0.479 0.61-0.778l0.006-0.014c0.133-0.288 0.212-0.625 0.214-0.98v-0.001c-0.013-0.36-0.105-0.696-0.258-0.995l0.006 0.013z"></path>
  </symbol>
  <symbol id="icon-quote" viewBox="0 0 49 32">
   <path d="M48.015 0.834c-0.495-0.515-1.19-0.834-1.959-0.834-0.012 0-0.023 0-0.035 0l0.002-0h-11.104c-0.076-0.005-0.165-0.008-0.255-0.008-1.21 0-2.299 0.513-3.063 1.333l-0.002 0.003c-0.75 0.955-1.235 2.151-1.327 3.455l-0.001 0.020-3.645 23.552c-0.070 0.246-0.111 0.528-0.111 0.82 0 0.691 0.227 1.33 0.611 1.844l-0.006-0.008c0.408 0.602 1.088 0.992 1.86 0.992 0.047 0 0.093-0.001 0.139-0.004l-0.006 0h5.467c0.097 0.009 0.209 0.014 0.322 0.014 1.047 0 1.994-0.431 2.673-1.125l0.001-0.001c0.724-0.759 1.334-1.635 1.796-2.596l0.026-0.061 8.788-22.764c0.306-0.783 0.487-1.69 0.494-2.638l0-0.003c0.001-0.023 0.001-0.050 0.001-0.078 0-0.726-0.251-1.394-0.67-1.921l0.005 0.006z"></path>
   <path d="M19.49 0h-10.934c-0.098-0.008-0.212-0.012-0.328-0.012-1.241 0-2.362 0.513-3.162 1.339l-0.001 0.001c-0.75 0.955-1.235 2.151-1.327 3.455l-0.001 0.020-3.645 23.552c-0.070 0.246-0.111 0.528-0.111 0.82 0 0.691 0.227 1.33 0.611 1.844l-0.006-0.008c0.408 0.602 1.088 0.992 1.86 0.992 0.047 0 0.093-0.001 0.139-0.004l-0.006 0h5.467c0.092 0.008 0.199 0.012 0.307 0.012 1.090 0 2.075-0.448 2.781-1.17l0.001-0.001c0.623-0.772 1.179-1.644 1.632-2.575l0.036-0.081 8.819-22.718c0.306-0.783 0.487-1.69 0.494-2.638l0-0.003c0.001-0.035 0.002-0.075 0.002-0.116 0-0.709-0.239-1.362-0.641-1.884l0.005 0.007c-0.495-0.515-1.19-0.834-1.959-0.834-0.012 0-0.023 0-0.035 0l0.002-0z"></path>
  </symbol>
  <symbol id="icon-ship-brand" viewBox="0 0 29 32">
   <path d="M28.867 14.44c-0.295-0.407-0.705-0.714-1.183-0.875l-0.017-0.005-1-0.333v-6.893c-0.004-0.674-0.301-1.278-0.771-1.691l-0.003-0.002c-0.434-0.397-1.015-0.64-1.653-0.64-0.005 0-0.010 0-0.015 0h-8.226v-2.667c0-0.736-0.597-1.333-1.333-1.333s-1.333 0.597-1.333 1.333v0 2.667h-6.893c-0.004-0-0.009-0-0.014-0-0.638 0-1.218 0.243-1.654 0.642l0.002-0.002c-0.472 0.415-0.77 1.019-0.773 1.693v6.441l-2.32 0.787c-0.983 0.325-1.68 1.236-1.68 2.309 0 0.004 0 0.008 0 0.012v-0.001 4.773c-0.009 0.054-0.015 0.116-0.015 0.18s0.005 0.126 0.015 0.187l-0.001-0.007c2.267 7.773 12.147 10.467 14.093 10.987 0.086 0.009 0.186 0.015 0.287 0.015s0.201-0.005 0.299-0.016l-0.012 0.001c0.199-0.001 0.392-0.025 0.577-0.070l-0.017 0.003c1.947-0.453 11.84-3.147 14.053-10.92 0.009-0.054 0.015-0.116 0.015-0.18s-0.005-0.126-0.015-0.187l0.001 0.007v-4.773c0.001-0.024 0.001-0.051 0.001-0.079 0-0.508-0.155-0.979-0.42-1.369l0.005 0.009zM6.667 6.667h17.333v5.667l-8.587-2.893c-0.224-0.068-0.481-0.107-0.747-0.107v0c-0.277 0.002-0.542 0.046-0.792 0.125l0.019-0.005-7.227 2.427zM26.667 20.453c-1.88 6.12-10.12 8.427-12 8.867-1.813-0.427-10.107-2.667-12-8.867v-4.453l10.667-3.6v8.933c0 0.736 0.597 1.333 1.333 1.333s1.333-0.597 1.333-1.333v0-8.88l10.667 3.547z"></path>
  </symbol>
  <symbol id="icon-star" viewBox="0 0 34 32">
   <path d="M15.631 0.821c0.161-0.479 0.606-0.818 1.13-0.818s0.969 0.339 1.128 0.81l0.002 0.008 3.141 9.671c0.16 0.481 0.606 0.822 1.131 0.822 0.020 0 0.041-0.001 0.061-0.002l-0.003 0h10.159c0.001 0 0.003 0 0.004 0 0.657 0 1.19 0.533 1.19 1.19 0 0.395-0.192 0.745-0.489 0.961l-0.003 0.002-8.22 5.948c-0.303 0.218-0.497 0.57-0.497 0.968 0 0.13 0.021 0.256 0.060 0.373l-0.002-0.008 3.141 9.671c0.038 0.111 0.060 0.239 0.060 0.372 0 0.657-0.533 1.19-1.19 1.19-0.264 0-0.508-0.086-0.705-0.232l0.003 0.002-8.22-5.948c-0.194-0.143-0.438-0.229-0.702-0.229s-0.508 0.086-0.705 0.231l0.003-0.002-8.22 5.948c-0.194 0.143-0.438 0.229-0.702 0.229-0.657 0-1.19-0.533-1.19-1.19 0-0.133 0.022-0.261 0.062-0.38l-0.002 0.008 3.141-9.671c0.038-0.111 0.060-0.239 0.060-0.372 0-0.393-0.191-0.742-0.485-0.958l-0.003-0.002-8.232-5.948c-0.3-0.219-0.493-0.569-0.493-0.964 0-0.642 0.509-1.165 1.145-1.189l0.002-0h10.171c0.525-0 0.97-0.341 1.128-0.812l0.002-0.008z"></path>
  </symbol>
  <symbol id="icon-support-brand" viewBox="0 0 31 32">
   <path d="M30.545 14.749c0-0.006 0-0.012 0-0.019 0-2.050-0.434-3.999-1.214-5.759l0.036 0.091c-0.815-1.875-1.939-3.47-3.325-4.795l-0.006-0.005c-1.387-1.337-3.035-2.415-4.858-3.149l-0.102-0.036c-1.703-0.681-3.677-1.077-5.743-1.077-0.027 0-0.053 0-0.080 0l0.004-0c-0.030-0-0.066-0-0.101-0-2.058 0-4.023 0.401-5.821 1.128l0.104-0.037c-1.92 0.765-3.563 1.839-4.95 3.175l0.005-0.004c-1.382 1.333-2.501 2.927-3.279 4.705l-0.037 0.095c-0.745 1.67-1.178 3.619-1.178 5.669 0 0.007 0 0.013 0 0.020v-0.001 7.767c0 0.001 0 0.003 0 0.005 0 1.020 0.424 1.942 1.104 2.598l0.001 0.001c0.679 0.657 1.606 1.062 2.627 1.062 0.002 0 0.004 0 0.006 0h2.283c0.026 0.001 0.058 0.001 0.089 0.001 1.018 0 1.942-0.405 2.618-1.064l-0.001 0.001c0.682-0.657 1.105-1.579 1.105-2.599 0-0.002 0-0.003 0-0.005v0-5.542c-0.005-1.025-0.427-1.951-1.105-2.618l-0.001-0.001c-0.679-0.657-1.606-1.062-2.627-1.062-0.002 0-0.004 0-0.005 0h-3.098c0.159-1.16 0.454-2.209 0.874-3.193l-0.030 0.080c0.669-1.49 1.57-2.76 2.673-3.822l0.004-0.004c2.244-2.135 5.286-3.448 8.636-3.448 0.043 0 0.085 0 0.127 0.001l-0.006-0c1.705 0.003 3.334 0.323 4.833 0.904l-0.092-0.031c1.557 0.626 2.89 1.497 4.019 2.579l-0.004-0.004c1.11 1.064 2.012 2.334 2.646 3.75l0.030 0.076c0.389 0.895 0.685 1.934 0.836 3.020l0.007 0.064h-3.025c-0.002 0-0.003 0-0.005 0-1.021 0-1.948 0.405-2.629 1.063l0.001-0.001c-0.678 0.667-1.1 1.593-1.105 2.617v5.543c0 0.001 0 0.003 0 0.005 0 1.020 0.424 1.942 1.104 2.598l0.001 0.001c0.679 0.657 1.606 1.062 2.628 1.062 0.002 0 0.004 0 0.006 0h2.283c0.297-0.006 0.582-0.043 0.857-0.107l-0.027 0.005v0.305c-0.012 0.743-0.353 1.403-0.883 1.844l-0.004 0.003c-0.606 0.533-1.406 0.859-2.282 0.859-0.021 0-0.042-0-0.063-0.001l0.003 0h-8.407c-0.803 0-1.455 0.651-1.455 1.455s0.651 1.455 1.455 1.455v0h8.407c0.016 0 0.035 0 0.054 0 1.62 0 3.101-0.601 4.23-1.592l-0.007 0.006c1.122-0.98 1.834-2.404 1.862-3.995l0-0.005v-3.113c0.007-0.037 0.011-0.080 0.011-0.124s-0.004-0.086-0.012-0.128l0.001 0.004c0.007-0.076 0.011-0.165 0.011-0.255s-0.004-0.178-0.011-0.266l0.001 0.011zM6.022 16.204c0.002-0 0.005-0 0.008-0 0.235 0 0.448 0.094 0.603 0.247l-0-0c0.135 0.13 0.218 0.312 0.218 0.513 0 0.004-0 0.007-0 0.011v-0.001 5.542c-0.001 0.205-0.084 0.39-0.218 0.524l-0 0c-0.161 0.144-0.375 0.233-0.61 0.233-0 0-0 0-0.001 0h-2.284c-0.001 0-0.002 0-0.003 0-0.229 0-0.438-0.088-0.594-0.233l0.001 0c-0.138-0.133-0.226-0.317-0.233-0.523l-0-0.001v-6.313zM26.807 23.273h-2.284c-0 0-0 0-0.001 0-0.235 0-0.449-0.088-0.611-0.233l0.001 0.001c-0.134-0.134-0.218-0.319-0.218-0.524v-5.542c-0-0.005-0-0.011-0-0.016 0-0.2 0.084-0.38 0.218-0.507l0-0c0.155-0.153 0.368-0.247 0.603-0.247 0.003 0 0.006 0 0.009 0h3.112v6.313c-0.006 0.206-0.094 0.391-0.232 0.523l-0 0c-0.155 0.144-0.364 0.233-0.593 0.233-0.001 0-0.002 0-0.003 0h0z"></path>
  </symbol>
  <symbol id="icon-time" viewBox="0 0 32 32">
   <path d="M16 0c-8.837 0-16 7.163-16 16s7.163 16 16 16c8.837 0 16-7.163 16-16v0c-0.008-8.833-7.167-15.992-15.999-16h-0.001zM16 30.609c-8.068 0-14.609-6.541-14.609-14.609s6.541-14.609 14.609-14.609c8.068 0 14.609 6.541 14.609 14.609v0c-0.008 8.065-6.544 14.601-14.608 14.609h-0.001z"></path>
   <path d="M16.696 3.478h-1.391v13.148l7.235 5.496 0.835-1.113-6.678-5.064v-12.466z"></path>
  </symbol>
  <symbol id="icon-timer-brand" viewBox="0 0 32 32">
   <path d="M16 0c-8.837 0-16 7.163-16 16s7.163 16 16 16c8.837 0 16-7.163 16-16v0c0-8.837-7.163-16-16-16v0zM16 29.333c-7.364 0-13.333-5.97-13.333-13.333s5.97-13.333 13.333-13.333c7.364 0 13.333 5.97 13.333 13.333v0c0 7.364-5.97 13.333-13.333 13.333v0z"/>
   <path d="M25.333 14.667h-8v-6.667c0-0.736-0.597-1.333-1.333-1.333s-1.333 0.597-1.333 1.333v0 8c0 0.736 0.597 1.333 1.333 1.333v0h9.333c0.736 0 1.333-0.597 1.333-1.333s-0.597-1.333-1.333-1.333v0z"/>
  </symbol>
  <symbol id="icon-transport-brand" viewBox="0 0 29 32">
   <path d="M26.573 27.16c1.74-3.083 2.765-6.769 2.765-10.695 0-0.164-0.002-0.327-0.005-0.489l0 0.024c0-8.973-4.373-16-9.947-16h-7.387c-0.026-0.004-0.056-0.006-0.087-0.006s-0.061 0.002-0.090 0.006l0.003-0h-0.493c-6.253 0-11.333 7.173-11.333 16s5.080 16 11.333 16h0.493c0.026 0.004 0.056 0.006 0.087 0.006s0.061-0.002 0.090-0.006l-0.003 0h7.387c2.813 0 5.333-1.8 7.107-4.72zM20.52 25.333c1.204-2.326 1.978-5.055 2.144-7.946l0.002-0.054h4c-0.124 2.939-0.884 5.674-2.144 8.108l0.051-0.108zM24.973 7.56c0.949 2.084 1.559 4.508 1.691 7.058l0.002 0.049h-4c-0.132-2.432-0.663-4.705-1.53-6.804l0.050 0.137h2.813c0.386-0.005 0.732-0.173 0.972-0.439l0.001-0.001zM19.387 2.667c1.826 0.156 3.384 1.175 4.279 2.642l0.014 0.024h-3.68c-0.032-0.004-0.069-0.006-0.107-0.006s-0.075 0.002-0.111 0.006l0.005-0c-0.646-1.010-1.373-1.885-2.193-2.66l-0.007-0.006zM2.667 16c0-7.347 3.893-13.333 8.667-13.333s8.667 5.987 8.667 13.333-3.893 13.333-8.667 13.333-8.667-5.987-8.667-13.333zM17.587 29.333c0.429-0.411 0.826-0.846 1.193-1.307l0.020-0.026h3.68c-0.802 0.783-1.885 1.282-3.084 1.333l-0.010 0z"/>
  </symbol>
  <symbol id="icon-twitter" viewBox="0 0 40 32">
   <path d="M40.042 3.802c-1.373 0.603-2.966 1.051-4.633 1.265l-0.088 0.009c1.693-1.005 2.969-2.559 3.597-4.413l0.017-0.057c-1.504 0.892-3.254 1.574-5.115 1.946l-0.107 0.018c-0.754-0.799-1.665-1.442-2.684-1.881l-0.052-0.020c-0.961-0.42-2.081-0.666-3.258-0.668h-0.001c-0.019-0-0.041-0-0.063-0-4.477 0-8.111 3.612-8.146 8.080l-0 0.003c-0 0.011-0 0.023-0 0.036 0 0.639 0.076 1.261 0.22 1.856l-0.011-0.054c-3.41-0.174-6.576-1.058-9.405-2.505l0.131 0.061c-3.028-1.494-5.58-3.511-7.637-5.959l-0.029-0.036c-0.696 1.151-1.107 2.54-1.107 4.026 0 0.009 0 0.018 0 0.027v-0.001c0.010 2.808 1.458 5.276 3.645 6.707l0.031 0.019c-1.376-0.028-2.66-0.396-3.78-1.024l0.041 0.021v0.104c0.039 3.913 2.83 7.162 6.527 7.908l0.052 0.009c-0.626 0.17-1.345 0.269-2.087 0.272h-0.001c-0.018 0-0.039 0-0.061 0-0.526 0-1.039-0.053-1.534-0.155l0.049 0.008c1.090 3.248 4.064 5.565 7.592 5.66l0.011 0c-2.774 2.125-6.292 3.405-10.109 3.405-0.029 0-0.059-0-0.088-0l0.005 0c-0.668 0-1.316 0-1.963-0.104 3.539 2.28 7.861 3.635 12.499 3.635 0.012 0 0.023 0 0.035-0h-0.002c0.124 0.002 0.271 0.004 0.418 0.004 12.69 0 22.977-10.287 22.977-22.977 0-0.001 0-0.003 0-0.004v0c0-0.355 0-0.71 0-1.044 1.614-1.158 2.978-2.542 4.078-4.122l0.036-0.055z"/>
  </symbol>
 </defs>
</svg>
