<svg xmlns="http://www.w3.org/2000/svg" viewBox="0 0 21 22" fill="currentColor">
 <path d="M21,10.14a9.78,9.78,0,0,0-.81-3.91,10,10,0,0,0-2.29-3.3A10.44,10.44,0,0,0,14.49.74a10.9,10.9,0,0,0-4-.74,10.67,10.67,0,0,0-4,.75A10.36,10.36,0,0,0,3.09,2.93,10.12,10.12,0,0,0,.81,6.23,9.78,9.78,0,0,0,0,10.14v5.34a2.48,2.48,0,0,0,.76,1.79A2.6,2.6,0,0,0,2.57,18H4.14A2.58,2.58,0,0,0,6,17.27a2.48,2.48,0,0,0,.76-1.79V11.67A2.54,2.54,0,0,0,6,9.87a2.6,2.6,0,0,0-1.81-.73H2.06A8.46,8.46,0,0,1,2.64,7,8.32,8.32,0,0,1,4.48,4.37,8.62,8.62,0,0,1,10.5,2a9.23,9.23,0,0,1,3.26.6,8.53,8.53,0,0,1,2.76,1.77A8.21,8.21,0,0,1,18.36,7a8.34,8.34,0,0,1,.58,2.12H16.86a2.6,2.6,0,0,0-1.81.73,2.54,2.54,0,0,0-.76,1.8v3.81a2.48,2.48,0,0,0,.76,1.79,2.6,2.6,0,0,0,1.81.73h1.57a2.78,2.78,0,0,0,.57-.07v.21a1.68,1.68,0,0,1-.61,1.27,2.38,2.38,0,0,1-1.61.59H11a1,1,0,0,0,0,2h5.78a4.41,4.41,0,0,0,2.94-1.09A3.73,3.73,0,0,0,21,18.14V16a.47.47,0,0,0,0-.17,2.09,2.09,0,0,0,0-.35Zm-16.86,1a.59.59,0,0,1,.42.17.49.49,0,0,1,.15.36v3.81a.51.51,0,0,1-.15.36.63.63,0,0,1-.42.16H2.57a.6.6,0,0,1-.41-.16A.52.52,0,0,1,2,15.48V11.14ZM18.43,16H16.86a.63.63,0,0,1-.42-.16.51.51,0,0,1-.15-.36V11.67a.48.48,0,0,1,.15-.36.59.59,0,0,1,.42-.17H19v4.34a.52.52,0,0,1-.16.36A.6.6,0,0,1,18.43,16Z"/>
</svg>