<svg xmlns="http://www.w3.org/2000/svg" viewBox="0 0 22 24" fill="currentColor">
 <path d="M19.93,20.37A16.55,16.55,0,0,0,22,12c0-6.73-3.28-12-7.46-12H9a.5.5,0,0,0-.13,0L8.5,0C3.81,0,0,5.38,0,12S3.81,24,8.5,24l.37,0A.5.5,0,0,0,9,24h5.54c2.11,0,4-1.35,5.33-3.54ZM15.39,19A15.14,15.14,0,0,0,17,13h3a14.54,14.54,0,0,1-1.57,6ZM18.73,5.67A15,15,0,0,1,20,11H17a15.51,15.51,0,0,0-1.11-5H18A1,1,0,0,0,18.73,5.67ZM14.54,2a4.16,4.16,0,0,1,3.22,2H15a.76.76,0,0,0-.16,0,10.44,10.44,0,0,0-1.65-2ZM2,12C2,6.49,4.92,2,8.5,2S15,6.49,15,12,12.08,22,8.5,22,2,17.51,2,12ZM13.19,22a9.75,9.75,0,0,0,.91-1h2.76a3.53,3.53,0,0,1-2.32,1Z"/>
</svg>