<svg xmlns="http://www.w3.org/2000/svg" viewBox="0 0 19.17 15.32" fill="currentColor">
 <path d="M19.17,1.82a8.41,8.41,0,0,1-2.26.61A3.9,3.9,0,0,0,18.64.29a8,8,0,0,1-2.5.94A3.86,3.86,0,0,0,14.83.32,4,4,0,0,0,13.27,0,3.9,3.9,0,0,0,9.34,3.87a3.77,3.77,0,0,0,.1.88A11.12,11.12,0,0,1,5,3.58,11.13,11.13,0,0,1,1.33.71,3.77,3.77,0,0,0,.8,2.65,3.85,3.85,0,0,0,2.56,5.87,3.86,3.86,0,0,1,.77,5.39v.05A3.9,3.9,0,0,0,3.92,9.23a4,4,0,0,1-1,.13,3.64,3.64,0,0,1-.74-.07A3.94,3.94,0,0,0,5.82,12,8,8,0,0,1,.94,13.63c-.32,0-.63,0-.94-.05a11.16,11.16,0,0,0,6,1.74,11,11,0,0,0,11.2-11c0-.17,0-.34,0-.5A8.09,8.09,0,0,0,19.17,1.82Z"/>
</svg>