<svg xmlns="http://www.w3.org/2000/svg" viewBox="0 0 26 26" fill="currentColor">
 <path d="M13,0A13,13,0,1,0,26,13,13,13,0,0,0,13,0Zm0,24c-.75,0-2-2.09-2.63-6h5.26C15,21.91,13.75,24,13,24Zm-2.87-8c-.08-.93-.13-1.92-.13-3s.05-2.07.13-3h5.74c.08.93.13,1.92.13,3s-.05,2.07-.13,3ZM2,13a10.46,10.46,0,0,1,.43-3h5.7C8.05,11,8,12,8,13s.05,2,.13,3H2.43A10.46,10.46,0,0,1,2,13ZM13,2c.75,0,2,2.09,2.63,6H10.37C11,4.09,12.25,2,13,2Zm4.87,8h5.7a10.74,10.74,0,0,1,0,6h-5.7A23.17,23.17,0,0,0,18,13,23.17,23.17,0,0,0,17.87,10Zm4.92-2H17.64A18.28,18.28,0,0,0,16,2.44,11,11,0,0,1,22.79,8ZM10,2.44A18.28,18.28,0,0,0,8.36,8H3.21A11,11,0,0,1,10,2.44ZM3.21,18H8.36A18.28,18.28,0,0,0,10,23.56,11,11,0,0,1,3.21,18ZM16,23.56A18.28,18.28,0,0,0,17.64,18h5.15A11,11,0,0,1,16,23.56Z"/>
</svg>