<svg xmlns="http://www.w3.org/2000/svg" viewBox="0 0 19.87 19.12" fill="currentColor">
 <path d="M14.08,0H5.8A5.71,5.71,0,0,0,0,5.58v8a5.71,5.71,0,0,0,5.8,5.58h8.28a5.71,5.71,0,0,0,5.79-5.58v-8A5.71,5.71,0,0,0,14.08,0Zm4.14,13.54A4,4,0,0,1,17,16.36a4.22,4.22,0,0,1-2.92,1.17H5.8a4.22,4.22,0,0,1-2.93-1.17,3.94,3.94,0,0,1-1.21-2.82v-8A3.94,3.94,0,0,1,2.87,2.76,4.31,4.31,0,0,1,5.8,1.59h8.28A4.31,4.31,0,0,1,17,2.76a4,4,0,0,1,1.22,2.82Z"/>
 <path d="M15.79,3.28a1.27,1.27,0,0,0-1.35.26,1.2,1.2,0,0,0-.34.61,1.17,1.17,0,0,0,.07.69,1.15,1.15,0,0,0,.46.54,1.28,1.28,0,0,0,1.16.11,1.36,1.36,0,0,0,.41-.26,1.36,1.36,0,0,0,.27-.39,1.18,1.18,0,0,0,.09-.46,1.15,1.15,0,0,0-.21-.66A1.22,1.22,0,0,0,15.79,3.28Z"/>
 <path d="M9.94,4.78a5,5,0,0,0-2.76.81A4.75,4.75,0,0,0,5.35,7.73a4.6,4.6,0,0,0-.29,2.76,4.75,4.75,0,0,0,1.36,2.45A5,5,0,0,0,9,14.25,5.21,5.21,0,0,0,11.84,14a5,5,0,0,0,2.23-1.76,4.67,4.67,0,0,0-.62-6A5.06,5.06,0,0,0,9.94,4.78Zm3.24,5.4a3.14,3.14,0,0,1-.9,1.64,3.51,3.51,0,0,1-1.7.87,3.46,3.46,0,0,1-1.91-.18,3.34,3.34,0,0,1-1.49-1.18,3.09,3.09,0,0,1,.41-4,3.41,3.41,0,0,1,4.19-.4A3.25,3.25,0,0,1,13,8.34,3.06,3.06,0,0,1,13.18,10.18Z"/>
</svg>