<svg xmlns="http://www.w3.org/2000/svg" viewBox="0 0 19 18" fill="currentColor">
 <path d="M18.54,11.86a2,2,0,0,0-1.13-.67L15,10.68a2.26,2.26,0,0,0-1.18.1,2.1,2.1,0,0,0-.93.71l-.48.69c-1.45-.59-5.76-2.61-6.31-5.78L7,5.89A1.89,1.89,0,0,0,7.78,5a1.84,1.84,0,0,0,.13-1.18L7.37,1.51A1.92,1.92,0,0,0,6.63.4,2.11,2.11,0,0,0,5.33,0L1.46.14A1.58,1.58,0,0,0,.89.27,1.51,1.51,0,0,0,.4.6a1.41,1.41,0,0,0-.31.49A1.47,1.47,0,0,0,0,1.67c.14,2.18.79,7.62,3.94,11A16.43,16.43,0,0,0,16.59,18l1,0a1.58,1.58,0,0,0,1-.44,1.43,1.43,0,0,0,.43-1V13.06A1.85,1.85,0,0,0,18.54,11.86ZM18,16.52a.48.48,0,0,1-.13.31.61.61,0,0,1-.36.15c-5.3.23-9.61-1.45-12.84-5C1.75,8.85,1.13,3.68,1,1.61a.41.41,0,0,1,0-.16.38.38,0,0,1,.09-.15.42.42,0,0,1,.16-.11.54.54,0,0,1,.21-.05L5.36,1h0A1.07,1.07,0,0,1,6,1.21a.93.93,0,0,1,.36.53l.53,2.31a.91.91,0,0,1,0,.54,1,1,0,0,1-.4.43l-1,.56a.83.83,0,0,0-.36.36.9.9,0,0,0-.08.51c.55,3.7,5.09,5.91,7,6.69a.83.83,0,0,0,.58,0,.8.8,0,0,0,.48-.34l.54-.76a1,1,0,0,1,.47-.35,1.1,1.1,0,0,1,.62-.06l2.43.51a1.09,1.09,0,0,1,.57.33.89.89,0,0,1,.22.57Z"/>
</svg>