<svg xmlns="http://www.w3.org/2000/svg" viewBox="0 0 31.52 20.72" fill="currentColor">
 <path d="M31.09.54A1.76,1.76,0,0,0,29.8,0H22.61a2.71,2.71,0,0,0-2.15.86,4.12,4.12,0,0,0-.86,2.25L17.24,18.36a2,2,0,0,0,.32,1.72,1.45,1.45,0,0,0,1.29.64h3.54A2.42,2.42,0,0,0,24.33,20a6.55,6.55,0,0,0,1.18-1.72L31.2,3.54a4.92,4.92,0,0,0,.32-1.71A2,2,0,0,0,31.09.54Z"/>
 <path d="M12.62,0H5.54A2.85,2.85,0,0,0,3.28.86a4.12,4.12,0,0,0-.86,2.25L.06,18.36a2,2,0,0,0,.32,1.72,1.45,1.45,0,0,0,1.29.64H5.21a2.52,2.52,0,0,0,2-.75,8.87,8.87,0,0,0,1.08-1.72L14,3.54a4.92,4.92,0,0,0,.32-1.71A2,2,0,0,0,13.91.54,1.76,1.76,0,0,0,12.62,0Z"/>
</svg>