<svg xmlns="http://www.w3.org/2000/svg" viewBox="0 0 22 24" fill="currentColor">
 <path d="M21.65,10.83a1.8,1.8,0,0,0-.9-.66L20,9.92V4.75a1.7,1.7,0,0,0-.58-1.27A1.84,1.84,0,0,0,18.17,3H12V1a1,1,0,0,0-2,0V3H4.83a1.84,1.84,0,0,0-1.25.48A1.7,1.7,0,0,0,3,4.75V9.58l-1.74.59A1.82,1.82,0,0,0,0,11.91v3.58a.84.84,0,0,0,0,.27C1.7,21.59,9.11,23.61,10.57,24A2.1,2.1,0,0,0,11,24a1.86,1.86,0,0,0,.42-.05c1.46-.34,8.88-2.36,10.54-8.19a.84.84,0,0,0,0-.27V11.91A1.83,1.83,0,0,0,21.65,10.83ZM5,5l5.92,0L11,5l.09,0L18,5V9.25L11.56,7.08A2,2,0,0,0,11,7h0a2,2,0,0,0-.58.09L5,8.91ZM20,15.34c-1.41,4.59-7.59,6.32-9,6.65-1.36-.32-7.58-2-9-6.65L2,12l8-2.7V16a1,1,0,0,0,2,0V9.34L20,12Z"/>
</svg>