<svg id="Layer_1" data-name="Layer 1" xmlns="http://www.w3.org/2000/svg" viewBox="0 0 55.14 40.75"><defs><style>.cls-1{fill:#ffd550;}.cls-2{fill:#1c1f35;}</style></defs><path class="cls-1" d="M38.64,15.39v-10h5.6a7,7,0,0,1,6.47,4.33l2,4.94a.5.5,0,0,1-.46.69Z"/><path class="cls-2" d="M52.29,16.39H37.64v-12h6.6a8,8,0,0,1,7.39,5l2,4.94a1.5,1.5,0,0,1-1.38,2.07Zm-12.65-2h11.9l-1.75-4.25a6,6,0,0,0-5.55-3.71h-4.6Z"/><path class="cls-2" d="M38.64,23H1a1,1,0,0,1,0-2H38.64a1,1,0,0,1,0,2Z"/><path class="cls-2" d="M42,40.75a7.65,7.65,0,1,1,7.65-7.64A7.65,7.65,0,0,1,42,40.75Zm0-13.29a5.65,5.65,0,1,0,5.65,5.65A5.65,5.65,0,0,0,42,27.46Z"/><path class="cls-1" d="M13.18,39.75a6.65,6.65,0,1,0-6.64-6.64A6.64,6.64,0,0,0,13.18,39.75Z"/><path class="cls-2" d="M13.18,40.75a7.65,7.65,0,1,1,7.64-7.64A7.65,7.65,0,0,1,13.18,40.75Zm0-13.29a5.65,5.65,0,1,0,5.64,5.65A5.65,5.65,0,0,0,13.18,27.46Z"/><path class="cls-2" d="M35.32,33H19.82a1,1,0,0,1,0-2h15.5a1,1,0,0,1,0,2Z"/><path class="cls-2" d="M6.48,33H2.88a2.9,2.9,0,0,1-2-.87A3,3,0,0,1,0,30.06V2.94A3,3,0,0,1,.83.87,2.9,2.9,0,0,1,2.88,0H38.64a1,1,0,0,1,1,1V27a1,1,0,0,1-2,0V2H2.88a.83.83,0,0,0-.61.26A1,1,0,0,0,2,2.94V30.06a1,1,0,0,0,.27.68.83.83,0,0,0,.61.26h3.6a1,1,0,1,1,0,2Z"/><path class="cls-2" d="M52.21,33H48.47a1,1,0,0,1,0-2h3.74a1,1,0,0,0,.67-.26.8.8,0,0,0,.26-.59V16.39H38.64a1,1,0,0,1,0-2h15.5a1,1,0,0,1,1,1V30.15a2.81,2.81,0,0,1-.88,2A2.94,2.94,0,0,1,52.21,33Z"/><path class="cls-2" d="M5.43,15.7a1,1,0,0,1-1-1V5.43a1,1,0,0,1,2,0V14.7A1,1,0,0,1,5.43,15.7Z"/><path class="cls-2" d="M34.63,18.61H25.36a1,1,0,0,1,0-2h9.27a1,1,0,0,1,0,2Z"/><path class="cls-2" d="M28.68,37.32H25.36a1,1,0,0,1,0-2h3.32a1,1,0,0,1,0,2Z"/></svg>