<svg id="Layer_1" data-name="Layer 1" xmlns="http://www.w3.org/2000/svg" viewBox="0 0 51.32 55.39"><defs><style>.cls-1{fill:#1c1f35;}.cls-2{fill:#ffd550;}</style></defs><path class="cls-1" d="M25.66,8.17a1,1,0,0,1-1-1V1a1,1,0,0,1,2,0V7.17A1,1,0,0,1,25.66,8.17Z"/><path class="cls-1" d="M25.66,55.39A2.94,2.94,0,0,1,25,55.3c-3.46-.81-21-5.55-24.91-19.09a.86.86,0,0,1,0-.28V27.15a3.05,3.05,0,0,1,2.1-2.9L24.7,16.7a3.16,3.16,0,0,1,1.9,0l22.62,7.56a3.05,3.05,0,0,1,2.1,2.9v8.78a.86.86,0,0,1,0,.28C47.41,49.75,29.83,54.49,26.35,55.3A2.61,2.61,0,0,1,25.66,55.39ZM2,35.79c3.65,12.36,20.14,16.8,23.42,17.56a1,1,0,0,0,.46,0c3.3-.77,19.79-5.21,23.44-17.57V27.15a1.07,1.07,0,0,0-.2-.62,1,1,0,0,0-.53-.38L26,18.59a1.18,1.18,0,0,0-.67,0L2.73,26.15a1,1,0,0,0-.53.38,1.07,1.07,0,0,0-.2.62Zm48.32.14h0Z"/><path class="cls-1" d="M26.13,48.67a.91.91,0,0,1-.23,0C23.13,48,9.12,44.27,6,33.58A1,1,0,0,1,7.94,33c2.79,9.61,15.83,13.07,18.41,13.66a1,1,0,0,1-.22,2Z"/><path class="cls-2" d="M7,10V23.14l18.55-6.59,18.55,6.59V10a3,3,0,0,0-3-3H10A3,3,0,0,0,7,10Z"/><path class="cls-1" d="M45.08,24.55,25.53,17.62,6,24.55V10a4,4,0,0,1,4-4h31.1a4,4,0,0,1,4,4ZM25.53,15.49l17.55,6.23V10a2,2,0,0,0-2-2H10a2,2,0,0,0-2,2V21.72Z"/><path class="cls-1" d="M25.66,39a1,1,0,0,1-1-1V17.54a1,1,0,0,1,2,0V38A1,1,0,0,1,25.66,39Z"/><path class="cls-1" d="M30.91,37.9a1,1,0,0,1-1-1V28.52a1,1,0,0,1,2,0V36.9A1,1,0,0,1,30.91,37.9Z"/><path class="cls-1" d="M11.77,18.75a1,1,0,0,1-1-1v-6a1,1,0,0,1,2,0v6A1,1,0,0,1,11.77,18.75Z"/><path class="cls-1" d="M48.86,21.14a1,1,0,0,1-1-1V9.38a1,1,0,0,1,2,0V20.14A1,1,0,0,1,48.86,21.14Z"/></svg>