<svg id="Layer_1" data-name="Layer 1" xmlns="http://www.w3.org/2000/svg" viewBox="0 0 50 50"><defs><style>.cls-1{fill:#1c1f35;}.cls-2{fill:#ffd550;}.cls-3{fill:#fff;}</style></defs><path class="cls-1" d="M49,11.82a1,1,0,0,1-1-1V3.18A1.2,1.2,0,0,0,46.82,2H39.18a1,1,0,0,1,0-2h7.64A3.18,3.18,0,0,1,50,3.18v7.64A1,1,0,0,1,49,11.82Z"/><path class="cls-1" d="M46.82,50H39.18a1,1,0,0,1,0-2h7.64a1.14,1.14,0,0,0,.83-.35,1.18,1.18,0,0,0,.35-.83V39.18a1,1,0,0,1,2,0v7.64a3.2,3.2,0,0,1-.93,2.25A3.16,3.16,0,0,1,46.82,50Z"/><path class="cls-1" d="M10.82,50H3.18a3.16,3.16,0,0,1-2.25-.93A3.2,3.2,0,0,1,0,46.82V39.18a1,1,0,0,1,2,0v7.64a1.18,1.18,0,0,0,.35.83,1.14,1.14,0,0,0,.83.35h7.64a1,1,0,0,1,0,2Z"/><path class="cls-1" d="M1,11.82a1,1,0,0,1-1-1V3.18A3.18,3.18,0,0,1,3.18,0h7.64a1,1,0,0,1,0,2H3.18A1.2,1.2,0,0,0,2,3.18v7.64A1,1,0,0,1,1,11.82Z"/><path class="cls-2" d="M25,29.36a8.73,8.73,0,1,0-8.73-8.72A8.72,8.72,0,0,0,25,29.36Z"/><path class="cls-1" d="M25,30.36a9.73,9.73,0,1,1,9.73-9.72A9.74,9.74,0,0,1,25,30.36Zm0-17.45a7.73,7.73,0,1,0,7.73,7.73A7.74,7.74,0,0,0,25,12.91Z"/><path class="cls-1" d="M39.48,39.09a1,1,0,0,1-.88-.53,15.42,15.42,0,0,0-5.66-6,15.66,15.66,0,0,0-15.87,0,15.38,15.38,0,0,0-5.67,6,1,1,0,0,1-1.76-.94,17.4,17.4,0,0,1,30.73,0,1,1,0,0,1-.89,1.47Z"/><path class="cls-1" d="M8,37.5a.67.67,0,0,1-.38-.11.73.73,0,0,1-.26-1l.31-.54a16.33,16.33,0,0,1,4.71-5.49.75.75,0,0,1,1.05.15.74.74,0,0,1-.16,1.05,14.89,14.89,0,0,0-4.3,5.05l-.33.55A.74.74,0,0,1,8,37.5Z"/><path class="cls-1" d="M36.4,17.69a.75.75,0,0,1-.72-.53,11.17,11.17,0,0,0-4.2-5.68.75.75,0,1,1,.87-1.22,12.71,12.71,0,0,1,4.77,6.46.75.75,0,0,1-.5.94A.83.83,0,0,1,36.4,17.69Z"/><path class="cls-3" d="M19.57,22.3a.76.76,0,0,1-.68-.43,5.43,5.43,0,0,1,.3-4.49,5.65,5.65,0,0,1,4.06-3.08.75.75,0,1,1,.29,1.47,4.16,4.16,0,0,0-3,2.28,4,4,0,0,0-.28,3.18.75.75,0,0,1-.36,1A.71.71,0,0,1,19.57,22.3Z"/></svg>