<svg id="Layer_1" data-name="Layer 1" xmlns="http://www.w3.org/2000/svg" viewBox="0 0 56.48 46"><defs><style>.cls-1{fill:#141414;}.cls-2{fill:#ffd550;}</style></defs><path class="cls-1" d="M54.43,46H2.05a1,1,0,1,1,0-2H54.43a1,1,0,1,1,0,2Z"/><path class="cls-1" d="M32.43,46a1,1,0,0,1-1-1V2.91a.93.93,0,0,0-.27-.64A1,1,0,0,0,30.48,2H7.14a1,1,0,0,0-.68.27.93.93,0,0,0-.27.64V45a1,1,0,0,1-2,0V2.91A2.94,2.94,0,0,1,7.14,0H30.48a2.94,2.94,0,0,1,2.95,2.91V45A1,1,0,0,1,32.43,46Z"/><path class="cls-2" d="M32.43,13.57H48.29a3,3,0,0,1,3,3V44H32.43Z"/><path class="cls-1" d="M51.29,45H32.43a1,1,0,0,1-1-1V13.57a1,1,0,0,1,1-1H48.29a4,4,0,0,1,4,4V44A1,1,0,0,1,51.29,45ZM33.43,43H50.29V16.57a2,2,0,0,0-2-2H33.43Z"/><path class="cls-1" d="M20.9,11.43H13.57a1,1,0,0,1,0-2H20.9a1,1,0,0,1,0,2Z"/><path class="cls-1" d="M1,41.81a1,1,0,0,1-1-1V26.14a1,1,0,0,1,2,0V40.81A1,1,0,0,1,1,41.81Z"/><path class="cls-1" d="M55.48,31.33a1,1,0,0,1-1-1V15.67a1,1,0,1,1,2,0V30.33A1,1,0,0,1,55.48,31.33Z"/><path class="cls-1" d="M42.9,10.38H35.57a1,1,0,0,1,0-2H42.9a1,1,0,0,1,0,2Z"/><path class="cls-1" d="M24.05,27.14H16.71a1,1,0,0,1,0-2h7.34a1,1,0,0,1,0,2Z"/><path class="cls-1" d="M20.9,36.57H13.57a1,1,0,0,1,0-2H20.9a1,1,0,0,1,0,2Z"/><path class="cls-1" d="M44,36.57H39.76a1,1,0,0,1,0-2H44a1,1,0,0,1,0,2Z"/><path class="cls-1" d="M44,27.14H39.76a1,1,0,0,1,0-2H44a1,1,0,0,1,0,2Z"/></svg>